<svg width="20" height="20" viewBox="0 0 20 20" fill="none" xmlns="http://www.w3.org/2000/svg">
<path fill-rule="evenodd" clip-rule="evenodd" d="M12.395 2.55298C12.3316 2.42601 12.2419 2.31399 12.1319 2.22436C12.0219 2.13473 11.8941 2.06954 11.7569 2.03312C11.6198 1.99671 11.4764 1.9899 11.3364 2.01315C11.1965 2.0364 11.063 2.08918 10.945 2.16798C10.6 2.39798 10.331 2.72598 10.123 3.04798C9.90901 3.37798 9.72001 3.76098 9.55301 4.16398C9.21901 4.96798 8.93901 5.93198 8.71301 6.89798C8.43969 8.07847 8.23501 9.27381 8.10001 10.478C7.69314 10.2157 7.36622 9.84656 7.15501 9.41098C6.82701 8.73098 6.757 7.87698 6.757 6.75698C6.75696 6.55923 6.69829 6.36593 6.58841 6.20152C6.47852 6.03711 6.32236 5.90897 6.13966 5.8333C5.95696 5.75763 5.75593 5.73783 5.56197 5.7764C5.36802 5.81496 5.18986 5.91017 5.05001 6.04998C4.39917 6.69942 3.88303 7.47102 3.53123 8.32049C3.17943 9.16995 2.9989 10.0805 3.00001 11C3.00009 12.1511 3.28405 13.2844 3.82674 14.2996C4.36944 15.3148 5.15411 16.1804 6.11125 16.8199C7.0684 17.4594 8.16849 17.853 9.31407 17.9658C10.4596 18.0786 11.6154 17.9071 12.6789 17.4666C13.7423 17.0261 14.6808 16.3301 15.4111 15.4403C16.1413 14.5504 16.6409 13.4942 16.8655 12.3652C17.0901 11.2362 17.0328 10.0693 16.6987 8.96772C16.3645 7.86616 15.7639 6.86399 14.95 6.04998C14.358 5.45898 13.97 5.06498 13.602 4.58298C13.239 4.10698 12.878 3.51998 12.395 2.55298ZM12.12 15.12C11.7005 15.539 11.1661 15.8243 10.5846 15.9398C10.003 16.0554 9.40016 15.996 8.85231 15.7691C8.30446 15.5423 7.83612 15.1582 7.50644 14.6653C7.17676 14.1724 7.00053 13.5929 7.00001 13C7.00001 13 7.87901 13.5 9.50001 13.5C9.50001 12.5 10 9.49998 10.75 8.99998C11.25 9.99998 11.536 10.293 12.121 10.879C12.4 11.1572 12.6213 11.4878 12.7722 11.8517C12.923 12.2157 13.0005 12.606 13 13C13.0005 13.394 12.923 13.7842 12.7722 14.1482C12.6213 14.5122 12.4 14.8428 12.121 15.121L12.12 15.12Z" fill="currentColor"/>
</svg>
