<svg width="20" height="20" viewBox="0 0 20 20" fill="none" xmlns="http://www.w3.org/2000/svg">
<path fill-rule="evenodd" clip-rule="evenodd" d="M6.99999 2C6.80224 2.00004 6.60895 2.05871 6.44454 2.1686C6.28013 2.27848 6.15199 2.43465 6.07632 2.61735C6.00065 2.80005 5.98084 3.00108 6.01941 3.19503C6.05798 3.38898 6.15319 3.56715 6.29299 3.707L6.99999 4.414V8.172C6.99994 8.43719 6.89454 8.69151 6.70699 8.879L2.70699 12.879C0.816995 14.769 2.15599 18 4.82799 18H15.171C17.844 18 19.183 14.769 17.293 12.879L13.293 8.879C13.1054 8.69151 13.0001 8.43719 13 8.172V4.414L13.707 3.707C13.8468 3.56715 13.942 3.38898 13.9806 3.19503C14.0191 3.00108 13.9993 2.80005 13.9237 2.61735C13.848 2.43465 13.7199 2.27848 13.5555 2.1686C13.391 2.05871 13.1977 2.00004 13 2H6.99999ZM8.99999 8.172V4H11V8.172C11.0004 8.96724 11.3166 9.72977 11.879 10.292L12.906 11.32C12.1868 11.153 11.4354 11.1883 10.735 11.422L10.265 11.578C9.44387 11.8517 8.55612 11.8517 7.73499 11.578L7.17199 11.391C7.13435 11.3782 7.09633 11.3665 7.05799 11.356L8.12099 10.293C8.68364 9.73052 8.99982 8.96758 8.99999 8.172Z" fill="currentColor"/>
</svg>
