<svg width="20" height="20" viewBox="0 0 20 20" fill="none" xmlns="http://www.w3.org/2000/svg">
<path d="M9.99997 2C8.40867 2 6.88255 2.63214 5.75733 3.75736C4.63211 4.88258 3.99997 6.4087 3.99997 8V11.586L3.29297 12.293C3.15316 12.4329 3.05795 12.611 3.01939 12.805C2.98082 12.9989 3.00062 13.2 3.07629 13.3827C3.15196 13.5654 3.2801 13.7215 3.44451 13.8314C3.60892 13.9413 3.80222 14 3.99997 14H16C16.1977 14 16.391 13.9413 16.5554 13.8314C16.7198 13.7215 16.848 13.5654 16.9236 13.3827C16.9993 13.2 17.0191 12.9989 16.9806 12.805C16.942 12.611 16.8468 12.4329 16.707 12.293L16 11.586V8C16 6.4087 15.3678 4.88258 14.2426 3.75736C13.1174 2.63214 11.5913 2 9.99997 2ZM9.99997 18C9.20432 18 8.44126 17.6839 7.87865 17.1213C7.31604 16.5587 6.99997 15.7956 6.99997 15H13C13 15.7956 12.6839 16.5587 12.1213 17.1213C11.5587 17.6839 10.7956 18 9.99997 18Z" fill="currentColor"/>
</svg>
